<svg xmlns="http://www.w3.org/2000/svg" viewBox="0 0 1600 980" role="img" aria-label="Vista ampliada Nura Organic Tech">
  <defs>
    <linearGradient id="bg" x1="0" y1="0" x2="1" y2="1">
      <stop offset="0" stop-color="#f2f0e9"/>
      <stop offset="1" stop-color="#e8e3d6"/>
    </linearGradient>
    <linearGradient id="hero" x1="0" y1="0" x2="1" y2="1">
      <stop offset="0" stop-color="#2e4036"/>
      <stop offset="1" stop-color="#111412"/>
    </linearGradient>
    <linearGradient id="card" x1="0" y1="0" x2="1" y2="1">
      <stop offset="0" stop-color="#ffffff" stop-opacity="0.92"/>
      <stop offset="1" stop-color="#f6f4ee" stop-opacity="0.86"/>
    </linearGradient>
  </defs>

  <rect width="1600" height="980" fill="url(#bg)"/>

  <rect x="320" y="62" width="960" height="64" rx="32" fill="#f9f7f1" fill-opacity="0.58" stroke="#2e4036" stroke-opacity="0.22"/>
  <rect x="354" y="84" width="154" height="17" rx="8" fill="#2e4036" fill-opacity="0.65"/>
  <rect x="1006" y="84" width="72" height="17" rx="8" fill="#2e4036" fill-opacity="0.34"/>
  <rect x="1090" y="84" width="72" height="17" rx="8" fill="#2e4036" fill-opacity="0.34"/>
  <rect x="1174" y="84" width="72" height="17" rx="8" fill="#2e4036" fill-opacity="0.34"/>

  <rect x="150" y="150" width="1300" height="502" rx="72" fill="url(#hero)"/>
  <rect x="192" y="206" width="464" height="24" rx="12" fill="#f2f0e9" fill-opacity="0.95"/>
  <rect x="192" y="244" width="588" height="32" rx="16" fill="#f2f0e9" fill-opacity="0.9"/>
  <rect x="192" y="288" width="502" height="18" rx="9" fill="#f2f0e9" fill-opacity="0.7"/>
  <rect x="192" y="386" width="182" height="50" rx="25" fill="#f2f0e9"/>
  <rect x="974" y="214" width="426" height="344" rx="38" fill="#f2f0e9" fill-opacity="0.08"/>

  <g transform="translate(188 552)">
    <rect width="392" height="306" rx="42" fill="url(#card)" stroke="#2e4036" stroke-opacity="0.18"/>
    <rect x="30" y="30" width="198" height="15" rx="7" fill="#2e4036" fill-opacity="0.72"/>
    <rect x="30" y="68" width="332" height="180" rx="24" fill="#ffffff" stroke="#2e4036" stroke-opacity="0.15"/>
    <rect x="52" y="98" width="224" height="12" rx="6" fill="#2e4036" fill-opacity="0.35"/>
    <rect x="52" y="122" width="188" height="12" rx="6" fill="#2e4036" fill-opacity="0.35"/>
    <rect x="52" y="146" width="216" height="12" rx="6" fill="#2e4036" fill-opacity="0.35"/>
    <rect x="30" y="266" width="332" height="22" rx="11" fill="#2e4036" fill-opacity="0.08"/>
  </g>

  <g transform="translate(604 552)">
    <rect width="392" height="306" rx="42" fill="url(#card)" stroke="#2e4036" stroke-opacity="0.18"/>
    <rect x="30" y="30" width="190" height="15" rx="7" fill="#2e4036" fill-opacity="0.72"/>
    <circle cx="40" cy="79" r="8" fill="#cc5833"/>
    <rect x="58" y="72" width="118" height="14" rx="7" fill="#2e4036" fill-opacity="0.42"/>
    <rect x="30" y="104" width="332" height="152" rx="21" fill="#ffffff"/>
    <rect x="56" y="138" width="238" height="11" rx="5" fill="#2e4036" fill-opacity="0.3"/>
    <rect x="56" y="160" width="204" height="11" rx="5" fill="#2e4036" fill-opacity="0.3"/>
    <rect x="56" y="182" width="226" height="11" rx="5" fill="#2e4036" fill-opacity="0.3"/>
    <rect x="30" y="266" width="332" height="22" rx="11" fill="#2e4036" fill-opacity="0.08"/>
  </g>

  <g transform="translate(1020 552)">
    <rect width="392" height="306" rx="42" fill="url(#card)" stroke="#2e4036" stroke-opacity="0.18"/>
    <rect x="30" y="30" width="198" height="15" rx="7" fill="#2e4036" fill-opacity="0.72"/>
    <rect x="30" y="74" width="332" height="128" rx="18" fill="#ffffff"/>
    <g fill="#f2f0e9" stroke="#2e4036" stroke-opacity="0.3" stroke-width="1.5">
      <rect x="52" y="96" width="34" height="34" rx="10"/>
      <rect x="94" y="96" width="34" height="34" rx="10"/>
      <rect x="136" y="96" width="34" height="34" rx="10"/>
      <rect x="178" y="96" width="34" height="34" rx="10"/>
      <rect x="220" y="96" width="34" height="34" rx="10"/>
      <rect x="262" y="96" width="34" height="34" rx="10"/>
      <rect x="304" y="96" width="34" height="34" rx="10"/>
    </g>
    <rect x="30" y="226" width="332" height="44" rx="22" fill="#2e4036"/>
  </g>
</svg>
