<svg xmlns="http://www.w3.org/2000/svg" viewBox="0 0 900 560" role="img" aria-label="Preview realista Nura Organic Tech">
  <defs>
    <linearGradient id="bg" x1="0" y1="0" x2="1" y2="1">
      <stop offset="0" stop-color="#f2f0e9"/>
      <stop offset="1" stop-color="#e8e4d8"/>
    </linearGradient>
    <linearGradient id="hero" x1="0" y1="0" x2="1" y2="1">
      <stop offset="0" stop-color="#2e4036"/>
      <stop offset="1" stop-color="#121614"/>
    </linearGradient>
    <linearGradient id="card" x1="0" y1="0" x2="1" y2="1">
      <stop offset="0" stop-color="#ffffff" stop-opacity="0.9"/>
      <stop offset="1" stop-color="#f6f4ee" stop-opacity="0.84"/>
    </linearGradient>
  </defs>
  <rect width="900" height="560" fill="url(#bg)"/>

  <rect x="170" y="34" width="560" height="38" rx="19" fill="#f9f7f1" fill-opacity="0.55" stroke="#2e4036" stroke-opacity="0.2"/>
  <rect x="190" y="47" width="98" height="10" rx="5" fill="#2e4036" fill-opacity="0.64"/>
  <rect x="560" y="47" width="42" height="10" rx="5" fill="#2e4036" fill-opacity="0.35"/>
  <rect x="612" y="47" width="42" height="10" rx="5" fill="#2e4036" fill-opacity="0.35"/>
  <rect x="664" y="47" width="42" height="10" rx="5" fill="#2e4036" fill-opacity="0.35"/>

  <rect x="80" y="86" width="740" height="304" rx="42" fill="url(#hero)"/>
  <rect x="104" y="122" width="262" height="14" rx="7" fill="#f2f0e9" fill-opacity="0.94"/>
  <rect x="104" y="146" width="336" height="17" rx="8" fill="#f2f0e9" fill-opacity="0.9"/>
  <rect x="104" y="170" width="288" height="11" rx="6" fill="#f2f0e9" fill-opacity="0.68"/>
  <rect x="104" y="228" width="120" height="34" rx="17" fill="#f2f0e9"/>
  <rect x="536" y="128" width="250" height="190" rx="24" fill="#f2f0e9" fill-opacity="0.08"/>

  <g transform="translate(100 328)">
    <rect width="218" height="170" rx="24" fill="url(#card)" stroke="#2e4036" stroke-opacity="0.17"/>
    <rect x="18" y="18" width="110" height="9" rx="4" fill="#2e4036" fill-opacity="0.7"/>
    <rect x="18" y="40" width="182" height="102" rx="14" fill="#ffffff" stroke="#2e4036" stroke-opacity="0.15"/>
    <rect x="32" y="56" width="122" height="8" rx="4" fill="#2e4036" fill-opacity="0.35"/>
    <rect x="32" y="72" width="94" height="8" rx="4" fill="#2e4036" fill-opacity="0.35"/>
    <rect x="32" y="88" width="116" height="8" rx="4" fill="#2e4036" fill-opacity="0.35"/>
  </g>

  <g transform="translate(341 328)">
    <rect width="218" height="170" rx="24" fill="url(#card)" stroke="#2e4036" stroke-opacity="0.17"/>
    <rect x="18" y="18" width="106" height="9" rx="4" fill="#2e4036" fill-opacity="0.7"/>
    <circle cx="24" cy="48" r="5" fill="#cc5833"/>
    <rect x="36" y="44" width="66" height="8" rx="4" fill="#2e4036" fill-opacity="0.45"/>
    <rect x="18" y="64" width="182" height="86" rx="12" fill="#ffffff"/>
    <rect x="32" y="84" width="130" height="7" rx="3" fill="#2e4036" fill-opacity="0.3"/>
    <rect x="32" y="99" width="108" height="7" rx="3" fill="#2e4036" fill-opacity="0.3"/>
    <rect x="32" y="114" width="122" height="7" rx="3" fill="#2e4036" fill-opacity="0.3"/>
  </g>

  <g transform="translate(582 328)">
    <rect width="218" height="170" rx="24" fill="url(#card)" stroke="#2e4036" stroke-opacity="0.17"/>
    <rect x="18" y="18" width="114" height="9" rx="4" fill="#2e4036" fill-opacity="0.7"/>
    <rect x="18" y="44" width="182" height="72" rx="10" fill="#ffffff"/>
    <g fill="#f2f0e9" stroke="#2e4036" stroke-opacity="0.3">
      <rect x="28" y="54" width="20" height="20" rx="6"/>
      <rect x="52" y="54" width="20" height="20" rx="6"/>
      <rect x="76" y="54" width="20" height="20" rx="6"/>
      <rect x="100" y="54" width="20" height="20" rx="6"/>
      <rect x="124" y="54" width="20" height="20" rx="6"/>
      <rect x="148" y="54" width="20" height="20" rx="6"/>
      <rect x="172" y="54" width="20" height="20" rx="6"/>
    </g>
    <rect x="18" y="126" width="182" height="24" rx="12" fill="#2e4036"/>
  </g>
</svg>
