<svg xmlns="http://www.w3.org/2000/svg" viewBox="0 0 1600 980" role="img" aria-label="Vista ampliada Business Noble">
  <defs>
    <linearGradient id="wall" x1="0" y1="0" x2="1" y2="1"><stop offset="0" stop-color="#ececf0"/><stop offset="1" stop-color="#d9deea"/></linearGradient>
    <linearGradient id="hero" x1="0" y1="0" x2="1" y2="1"><stop offset="0" stop-color="#1f3c88"/><stop offset="1" stop-color="#6f8cd6"/></linearGradient>
    <linearGradient id="screen" x1="0" y1="0" x2="1" y2="1"><stop offset="0" stop-color="#f6f7fb"/><stop offset="1" stop-color="#ffffff"/></linearGradient>
  </defs>
  <rect width="1600" height="980" fill="url(#wall)"/>
  <rect y="790" width="1600" height="190" fill="#d6c5b0"/>

  <ellipse cx="800" cy="780" rx="208" ry="38" fill="#b9b9b9" fill-opacity="0.35"/>

  <rect x="240" y="160" width="1120" height="590" rx="34" fill="#d3d3d3"/>
  <rect x="268" y="188" width="1064" height="518" rx="14" fill="#111214"/>
  <rect x="296" y="216" width="1008" height="462" rx="6" fill="url(#screen)"/>

  <rect x="296" y="216" width="1008" height="56" fill="#fefefe"/>
  <circle cx="334" cy="244" r="5" fill="#2f78ff"/>
  <rect x="348" y="236" width="168" height="15" rx="7" fill="#17304f" fill-opacity="0.78"/>
  <rect x="998" y="236" width="52" height="10" rx="5" fill="#2a415f" fill-opacity="0.55"/>
  <rect x="1064" y="236" width="52" height="10" rx="5" fill="#2a415f" fill-opacity="0.55"/>
  <rect x="1130" y="236" width="52" height="10" rx="5" fill="#2a415f" fill-opacity="0.55"/>

  <rect x="296" y="272" width="1008" height="186" fill="url(#hero)"/>
  <rect x="344" y="310" width="298" height="19" rx="9" fill="#ffffff" fill-opacity="0.88"/>
  <rect x="344" y="343" width="376" height="12" rx="6" fill="#ffffff" fill-opacity="0.64"/>
  <rect x="344" y="364" width="334" height="12" rx="6" fill="#ffffff" fill-opacity="0.64"/>
  <rect x="344" y="392" width="122" height="34" rx="17" fill="#ffffff" fill-opacity="0.94"/>
  <rect x="890" y="294" width="370" height="142" rx="9" fill="#ffffff" fill-opacity="0.2"/>

  <rect x="296" y="458" width="1008" height="220" fill="#f8f9fb"/>
  <rect x="344" y="502" width="292" height="154" rx="10" fill="#ffffff" stroke="#e2e7ef"/>
  <rect x="654" y="502" width="292" height="154" rx="10" fill="#ffffff" stroke="#e2e7ef"/>
  <rect x="964" y="502" width="292" height="154" rx="10" fill="#ffffff" stroke="#e2e7ef"/>
  <rect x="366" y="528" width="108" height="78" rx="8" fill="#d2dbe8"/>
  <rect x="676" y="528" width="108" height="78" rx="8" fill="#d2dbe8"/>
  <rect x="986" y="528" width="108" height="78" rx="8" fill="#d2dbe8"/>
  <rect x="486" y="526" width="122" height="12" rx="6" fill="#5b6f8a" fill-opacity="0.28"/>

  <path d="M714 744h172l44 63H670z" fill="#c8c8c8"/>
  <rect x="718" y="807" width="164" height="19" rx="9" fill="#b6b6b6"/>

  <rect x="230" y="832" width="132" height="32" rx="8" fill="#ededed" stroke="#d8d8d8"/>
  <ellipse cx="1248" cy="858" rx="42" ry="20" fill="#f2f2f2" stroke="#d9d9d9"/>
  <rect x="1300" y="760" width="84" height="106" rx="12" fill="#f8f8f8" stroke="#dcdcdc"/>
  <rect x="1314" y="794" width="56" height="12" rx="6" fill="#83b58b"/>
</svg>
